<svg xmlns="http://www.w3.org/2000/svg" xmlns:xlink="http://www.w3.org/1999/xlink" viewBox="0 0 2560 1800"><defs><style>.cls-1,.cls-13,.cls-14,.cls-15,.cls-5,.cls-6,.cls-7,.cls-8{fill:none;}.cls-2{isolation:isolate;}.cls-3{clip-path:url(#clip-path);}.cls-4{fill:url(#linear-gradient);}.cls-15,.cls-5,.cls-6{stroke:#fff;}.cls-13,.cls-14,.cls-15,.cls-5,.cls-6,.cls-7,.cls-8{stroke-miterlimit:10;}.cls-5,.cls-6{stroke-width:2.02px;}.cls-5{opacity:0.15;}.cls-17,.cls-6{opacity:0.09;}.cls-7{stroke-width:36.39px;opacity:0.79;stroke:url(#linear-gradient-2);}.cls-8{stroke:#350063;stroke-width:11px;opacity:0.75;}.cls-12,.cls-16,.cls-17,.cls-18,.cls-19,.cls-20,.cls-21,.cls-9{fill:#fff;}.cls-9{opacity:0.13;}.cls-10{fill:#f0f;mix-blend-mode:screen;opacity:0.21;}.cls-11{fill:#3c0ead;mix-blend-mode:luminosity;opacity:0.2;}.cls-12{opacity:0.07;}.cls-13{stroke-width:10px;stroke:url(#linear-gradient-3);}.cls-14{stroke-width:12px;opacity:0.31;stroke:url(#linear-gradient-4);}.cls-15{stroke-width:40.02px;opacity:0.23;}.cls-16{opacity:0.4;}.cls-18{opacity:0.08;}.cls-19{opacity:0.49;}.cls-20{opacity:0.1;}.cls-21{opacity:0.19;}.cls-22,.cls-23{fill:#34e8b9;}.cls-22{mix-blend-mode:color;}.cls-23{mix-blend-mode:soft-light;opacity:0.36;}</style><clipPath id="clip-path"><rect class="cls-1" width="2560" height="1800"/></clipPath><linearGradient id="linear-gradient" x1="474.73" y1="-572.7" x2="3572.28" y2="2524.86" gradientTransform="translate(328.09 2405.86) rotate(-90)" gradientUnits="userSpaceOnUse"><stop offset="0" stop-color="#5c07e2"/><stop offset="1" stop-color="#f53bff"/></linearGradient><linearGradient id="linear-gradient-2" x1="627.76" y1="429.39" x2="2404.3" y2="1455.07" gradientTransform="translate(328.09 2405.86) rotate(-90)" gradientUnits="userSpaceOnUse"><stop offset="0" stop-color="#fff" stop-opacity="0.6"/><stop offset="0.09" stop-color="#faf9f8" stop-opacity="0.46"/><stop offset="0.23" stop-color="#f2f0ef" stop-opacity="0.27"/><stop offset="0.35" stop-color="#eceae8" stop-opacity="0.12"/><stop offset="0.45" stop-color="#e8e6e4" stop-opacity="0.03"/><stop offset="0.51" stop-color="#e7e5e2" stop-opacity="0"/><stop offset="0.57" stop-color="#e8e6e3" stop-opacity="0.03"/><stop offset="0.66" stop-color="#ebe9e7" stop-opacity="0.1"/><stop offset="0.76" stop-color="#f0efed" stop-opacity="0.22"/><stop offset="0.88" stop-color="#f7f6f5" stop-opacity="0.39"/><stop offset="1" stop-color="#fff" stop-opacity="0.6"/></linearGradient><linearGradient id="linear-gradient-3" x1="1874.22" y1="3112.92" x2="1710.83" y2="1247.94" gradientTransform="matrix(-0.64, -0.77, 0.77, -0.64, 751.9, 3664.47)" gradientUnits="userSpaceOnUse"><stop offset="0" stop-color="#ff6bc1"/><stop offset="1" stop-color="#6324de"/></linearGradient><linearGradient id="linear-gradient-4" x1="268.11" y1="942.23" x2="2763.95" y2="942.23" gradientTransform="translate(328.09 2405.86) rotate(-90)" xlink:href="#linear-gradient-3"/></defs><g class="cls-2"><g id="Layer_2" data-name="Layer 2"><g class="cls-3"><rect id="BG" class="cls-4" x="-21.03" y="-1423.34" width="2605.47" height="3656.32"/><line class="cls-5" x1="2580.44" y1="1233.47" x2="1762.62" y2="1468.48"/><line class="cls-5" x1="2588.51" y1="1159.09" x2="1651.16" y2="441.54"/><line class="cls-5" x1="1648.2" y1="1536.51" x2="1145.79" y2="2223.26"/><line class="cls-5" x1="554.65" y1="684.82" x2="31.24" y2="5.53"/><line class="cls-6" x1="1232.75" y1="42.88" x2="1090.76" y2="-488.27"/><circle class="cls-7" cx="1270.33" cy="889.83" r="1007.32"/><circle class="cls-8" cx="1270.33" cy="889.83" r="1175.21"/><circle class="cls-9" cx="1270.33" cy="889.83" r="896.27"/><circle class="cls-10" cx="1944.45" cy="1501.63" r="1002.31"/><ellipse class="cls-11" cx="1281.13" cy="882.95" rx="843.95" ry="775.7" transform="translate(-273.74 825.8) rotate(-32.47)"/><circle class="cls-12" cx="1270.33" cy="889.83" r="737.68"/><circle class="cls-13" cx="1270.33" cy="889.83" r="931.01"/><circle class="cls-14" cx="1270.33" cy="889.83" r="1241.92"/><circle class="cls-15" cx="1247.53" cy="898.07" r="1512.75"/><g id="stars"><circle class="cls-16" cx="443.16" cy="1693.54" r="16.19"/><circle class="cls-17" cx="1689.09" cy="1483.6" r="30.57"/><circle class="cls-17" cx="2393.65" cy="457.22" r="82.33"/><circle class="cls-9" cx="624.75" cy="1744" r="66.64"/><circle class="cls-18" cx="2074.79" cy="1669.39" r="106.98"/><circle class="cls-17" cx="873.76" cy="107.42" r="139.2"/><circle class="cls-19" cx="221.87" cy="957.85" r="11.99"/><circle class="cls-19" cx="567.52" cy="702.7" r="11.99"/></g><g id="stars-2" data-name="stars"><circle class="cls-20" cx="2228.65" cy="764.43" r="30.57"/><circle class="cls-21" cx="2084.34" cy="395.01" r="46.84"/><circle class="cls-16" cx="1403.71" cy="358.06" r="16.19"/><circle class="cls-17" cx="399.93" cy="1125.44" r="30.57"/><circle class="cls-9" cx="1219.57" cy="398.23" r="66.64"/><circle class="cls-18" cx="-27.89" cy="1141.22" r="106.98"/><circle class="cls-19" cx="1999.38" cy="1181.27" r="11.99"/></g><path class="cls-1" d="M700.94,124c74.95,162,187.17,216.44,325.06,220,161,4.15,252.28-55.24,318.88-97.76s128.44-94.26,202.46-122.29,166.85-26.67,222.78,28.9c76.63,76.15,46.7,202.19,21.42,306.7-25.1,103.75-40.23,211.78-23.16,317.12s69.57,208.36,158,269.43c104.07,71.89,246.6,80.22,339.55,165.75,105.16,96.76,111.43,256,119.2,397.89s26.25,305.08,151.87,373.91V-410.61H-9V999.94c158.93,71,363.79,49.08,479-80.42s134.37-475.31,33.15-668.59-98.2-287.19-16-313.77C576.91-91.9,655,24.78,700.94,124Z"/><rect class="cls-1" x="3.33" y="-410.61" width="2558.01" height="885.58" transform="translate(2564.66 64.36) rotate(180)"/><rect class="cls-1" x="3.33" y="-410.61" width="2546.04" height="885.58"/></g></g><g id="Layer_3" data-name="Layer 3"><rect class="cls-22" width="2560" height="1800"/></g><g id="Layer_4" data-name="Layer 4"><rect class="cls-23" width="2560" height="1800"/></g></g></svg>